<mxfile host="app.diagrams.net" modified="2023-02-24T10:00:44.766Z" agent="5.0 (Windows NT 10.0; Win64; x64) AppleWebKit/537.36 (KHTML, like Gecko) Chrome/110.0.0.0 Safari/537.36" etag="o0uTeaNd4u_-5cL4G5kv" version="20.8.23" type="github">
  <diagram id="OlfqImsbNMb45H6n4PX8" name="第 1 页">
    <mxGraphModel dx="1195" dy="637" grid="1" gridSize="10" guides="1" tooltips="1" connect="1" arrows="1" fold="1" page="1" pageScale="1" pageWidth="827" pageHeight="1169" math="0" shadow="0">
      <root>
        <mxCell id="0" />
        <mxCell id="1" parent="0" />
        <mxCell id="ik_k4gAjeatmCQZmZOk4-6" style="edgeStyle=orthogonalEdgeStyle;rounded=0;orthogonalLoop=1;jettySize=auto;html=1;exitX=0.5;exitY=1;exitDx=0;exitDy=0;entryX=0.5;entryY=0;entryDx=0;entryDy=0;" parent="1" source="ik_k4gAjeatmCQZmZOk4-1" target="ik_k4gAjeatmCQZmZOk4-4" edge="1">
          <mxGeometry relative="1" as="geometry" />
        </mxCell>
        <mxCell id="ik_k4gAjeatmCQZmZOk4-8" style="edgeStyle=orthogonalEdgeStyle;rounded=0;orthogonalLoop=1;jettySize=auto;html=1;exitX=1;exitY=0.5;exitDx=0;exitDy=0;entryX=0;entryY=0.5;entryDx=0;entryDy=0;" parent="1" source="ik_k4gAjeatmCQZmZOk4-1" target="ik_k4gAjeatmCQZmZOk4-7" edge="1">
          <mxGeometry relative="1" as="geometry" />
        </mxCell>
        <mxCell id="ik_k4gAjeatmCQZmZOk4-1" value="BeanDefiiniton解析阶段" style="rounded=1;whiteSpace=wrap;html=1;fontStyle=0;fillColor=#dae8fc;strokeColor=#6c8ebf;" parent="1" vertex="1">
          <mxGeometry x="150" y="140" width="170" height="60" as="geometry" />
        </mxCell>
        <mxCell id="ik_k4gAjeatmCQZmZOk4-10" style="edgeStyle=orthogonalEdgeStyle;rounded=0;orthogonalLoop=1;jettySize=auto;html=1;exitX=1;exitY=0.5;exitDx=0;exitDy=0;entryX=0;entryY=0.5;entryDx=0;entryDy=0;" parent="1" source="ik_k4gAjeatmCQZmZOk4-4" target="ik_k4gAjeatmCQZmZOk4-9" edge="1">
          <mxGeometry relative="1" as="geometry" />
        </mxCell>
        <mxCell id="ik_k4gAjeatmCQZmZOk4-12" style="edgeStyle=orthogonalEdgeStyle;rounded=0;orthogonalLoop=1;jettySize=auto;html=1;exitX=0.5;exitY=1;exitDx=0;exitDy=0;entryX=0.5;entryY=0;entryDx=0;entryDy=0;" parent="1" source="ik_k4gAjeatmCQZmZOk4-4" target="ik_k4gAjeatmCQZmZOk4-11" edge="1">
          <mxGeometry relative="1" as="geometry" />
        </mxCell>
        <mxCell id="ik_k4gAjeatmCQZmZOk4-4" value="BeanDefiiniton注册阶段" style="rounded=1;whiteSpace=wrap;html=1;fontStyle=0;fillColor=#dae8fc;strokeColor=#6c8ebf;" parent="1" vertex="1">
          <mxGeometry x="150" y="240" width="170" height="60" as="geometry" />
        </mxCell>
        <mxCell id="ik_k4gAjeatmCQZmZOk4-7" value="XML资源&lt;br&gt;Properties资源&lt;br&gt;Java注解" style="rounded=1;whiteSpace=wrap;html=1;fontStyle=0;fillColor=#dae8fc;strokeColor=#6c8ebf;" parent="1" vertex="1">
          <mxGeometry x="420" y="140" width="170" height="60" as="geometry" />
        </mxCell>
        <mxCell id="ik_k4gAjeatmCQZmZOk4-9" value="&lt;br&gt;注册BeanDefinition其实就是把 BeanDefinition信息放入map中&lt;br&gt;key=BeanName&lt;br style=&quot;border-color: var(--border-color);&quot;&gt;&lt;span style=&quot;border-color: var(--border-color); color: rgba(0, 0, 0, 0); font-family: monospace; font-size: 0px; text-align: start;&quot;&gt;%3CmxGraphModel%3E%3Croot%3E%3CmxCell%20id%3D%220%22%2F%3E%3CmxCell%20id%3D%221%22%20parent%3D%220%22%2F%3E%3CmxCell%20id%3D%222%22%20value%3D%22XML%E8%B5%84%E6%BA%90%26lt%3Bbr%26gt%3BProperties%E8%B5%84%E6%BA%90%26lt%3Bbr%26gt%3BJava%E6%B3%A8%E8%A7%A3%22%20style%3D%22rounded%3D1%3BwhiteSpace%3Dwrap%3Bhtml%3D1%3BfontStyle%3D0%22%20vertex%3D%221%22%20parent%3D%221%22%3E%3CmxGeometry%20x%3D%22420%22%20y%3D%22140%22%20width%3D%22170%22%20height%3D%2260%22%20as%3D%22geometry%22%2F%3E%3C%2FmxCell%3E%3C%2Froot%3E%3C%2FmxGraphModel%3E&lt;br style=&quot;border-color: var(--border-color);&quot;&gt;&lt;/span&gt;" style="rounded=1;whiteSpace=wrap;html=1;fontStyle=0;fillColor=#dae8fc;strokeColor=#6c8ebf;" parent="1" vertex="1">
          <mxGeometry x="420" y="240" width="170" height="60" as="geometry" />
        </mxCell>
        <mxCell id="ik_k4gAjeatmCQZmZOk4-13" style="edgeStyle=orthogonalEdgeStyle;rounded=0;orthogonalLoop=1;jettySize=auto;html=1;exitX=1;exitY=0.5;exitDx=0;exitDy=0;" parent="1" source="ik_k4gAjeatmCQZmZOk4-11" edge="1">
          <mxGeometry relative="1" as="geometry">
            <mxPoint x="420" y="370.28571428571433" as="targetPoint" />
          </mxGeometry>
        </mxCell>
        <mxCell id="ik_k4gAjeatmCQZmZOk4-18" style="edgeStyle=orthogonalEdgeStyle;rounded=0;orthogonalLoop=1;jettySize=auto;html=1;exitX=0.5;exitY=1;exitDx=0;exitDy=0;entryX=0.5;entryY=0;entryDx=0;entryDy=0;" parent="1" source="ik_k4gAjeatmCQZmZOk4-11" target="ik_k4gAjeatmCQZmZOk4-17" edge="1">
          <mxGeometry relative="1" as="geometry" />
        </mxCell>
        <mxCell id="ik_k4gAjeatmCQZmZOk4-11" value="BeanDefiiniton合并阶段" style="rounded=1;whiteSpace=wrap;html=1;fontStyle=0;fillColor=#dae8fc;strokeColor=#6c8ebf;" parent="1" vertex="1">
          <mxGeometry x="150" y="340" width="170" height="60" as="geometry" />
        </mxCell>
        <mxCell id="ik_k4gAjeatmCQZmZOk4-14" value="&lt;br&gt;主要解决Bean继承时子类合并父类公共属性问题&lt;br&gt;最终变为RootBeanDefinition&lt;br style=&quot;border-color: var(--border-color);&quot;&gt;&lt;span style=&quot;border-color: var(--border-color); color: rgba(0, 0, 0, 0); font-family: monospace; font-size: 0px; text-align: start;&quot;&gt;%3CmxGraphModel%3E%3Croot%3E%3CmxCell%20id%3D%220%22%2F%3E%3CmxCell%20id%3D%221%22%20parent%3D%220%22%2F%3E%3CmxCell%20id%3D%222%22%20value%3D%22XML%E8%B5%84%E6%BA%90%26lt%3Bbr%26gt%3BProperties%E8%B5%84%E6%BA%90%26lt%3Bbr%26gt%3BJava%E6%B3%A8%E8%A7%A3%22%20style%3D%22rounded%3D1%3BwhiteSpace%3Dwrap%3Bhtml%3D1%3BfontStyle%3D0%22%20vertex%3D%221%22%20parent%3D%221%22%3E%3CmxGeometry%20x%3D%22420%22%20y%3D%22140%22%20width%3D%22170%22%20height%3D%2260%22%20as%3D%22geometry%22%2F%3E%3C%2FmxCell%3E%3C%2Froot%3E%3C%2FmxGraphModel%3E&lt;br style=&quot;border-color: var(--border-color);&quot;&gt;&lt;/span&gt;" style="rounded=1;whiteSpace=wrap;html=1;fontStyle=0;fillColor=#dae8fc;strokeColor=#6c8ebf;" parent="1" vertex="1">
          <mxGeometry x="420" y="340" width="170" height="60" as="geometry" />
        </mxCell>
        <mxCell id="ik_k4gAjeatmCQZmZOk4-15" value="" style="shape=curlyBracket;whiteSpace=wrap;html=1;rounded=1;flipH=1;labelPosition=right;verticalLabelPosition=middle;align=left;verticalAlign=middle;" parent="1" vertex="1">
          <mxGeometry x="640" y="140" width="20" height="260" as="geometry" />
        </mxCell>
        <mxCell id="ik_k4gAjeatmCQZmZOk4-16" value="Spring容器启动阶段" style="text;html=1;strokeColor=none;fillColor=none;align=center;verticalAlign=middle;whiteSpace=wrap;rounded=0;" parent="1" vertex="1">
          <mxGeometry x="680" y="255" width="120" height="30" as="geometry" />
        </mxCell>
        <mxCell id="ik_k4gAjeatmCQZmZOk4-20" style="edgeStyle=orthogonalEdgeStyle;rounded=0;orthogonalLoop=1;jettySize=auto;html=1;exitX=1;exitY=0.5;exitDx=0;exitDy=0;entryX=0;entryY=0.5;entryDx=0;entryDy=0;" parent="1" source="ik_k4gAjeatmCQZmZOk4-17" target="ik_k4gAjeatmCQZmZOk4-19" edge="1">
          <mxGeometry relative="1" as="geometry" />
        </mxCell>
        <mxCell id="ik_k4gAjeatmCQZmZOk4-23" value="返回为null" style="edgeStyle=orthogonalEdgeStyle;rounded=0;orthogonalLoop=1;jettySize=auto;html=1;exitX=0.5;exitY=1;exitDx=0;exitDy=0;entryX=0.5;entryY=0;entryDx=0;entryDy=0;fontStyle=1" parent="1" source="ik_k4gAjeatmCQZmZOk4-17" target="ik_k4gAjeatmCQZmZOk4-22" edge="1">
          <mxGeometry x="-0.0698" y="-35" relative="1" as="geometry">
            <mxPoint as="offset" />
          </mxGeometry>
        </mxCell>
        <mxCell id="ik_k4gAjeatmCQZmZOk4-71" style="edgeStyle=orthogonalEdgeStyle;rounded=0;orthogonalLoop=1;jettySize=auto;html=1;exitX=0;exitY=0.5;exitDx=0;exitDy=0;entryX=0;entryY=0.5;entryDx=0;entryDy=0;" parent="1" source="ik_k4gAjeatmCQZmZOk4-17" target="ik_k4gAjeatmCQZmZOk4-58" edge="1">
          <mxGeometry relative="1" as="geometry">
            <mxPoint x="70" y="770" as="targetPoint" />
            <Array as="points">
              <mxPoint x="50" y="490" />
              <mxPoint x="50" y="1480" />
            </Array>
          </mxGeometry>
        </mxCell>
        <mxCell id="ik_k4gAjeatmCQZmZOk4-74" value="返回不为null" style="edgeLabel;html=1;align=center;verticalAlign=middle;resizable=0;points=[];fontStyle=1" parent="ik_k4gAjeatmCQZmZOk4-71" vertex="1" connectable="0">
          <mxGeometry x="-0.8964" y="-2" relative="1" as="geometry">
            <mxPoint x="12" y="-8" as="offset" />
          </mxGeometry>
        </mxCell>
        <mxCell id="ik_k4gAjeatmCQZmZOk4-17" value="Bean 实例化前阶段" style="rounded=1;whiteSpace=wrap;html=1;fontStyle=0;fillColor=#d5e8d4;strokeColor=#82b366;" parent="1" vertex="1">
          <mxGeometry x="150" y="460" width="170" height="60" as="geometry" />
        </mxCell>
        <mxCell id="ik_k4gAjeatmCQZmZOk4-19" value="&lt;div style=&quot;&quot;&gt;&amp;nbsp; &lt;font color=&quot;#b5739d&quot;&gt;&amp;nbsp;&lt;/font&gt;&lt;b style=&quot;&quot;&gt;&lt;font color=&quot;#ff3333&quot;&gt;InstantiationAwareBeanPostProcessor&lt;/font&gt;&lt;/b&gt;#postProcessBeforeInstantiation&lt;br&gt;返回不为空，说明bean已经在这个方法中创建好了，不需要在进行后续的处理了&lt;/div&gt;" style="rounded=1;whiteSpace=wrap;html=1;fontStyle=0;align=center;fillColor=#dae8fc;strokeColor=#6c8ebf;" parent="1" vertex="1">
          <mxGeometry x="420" y="460" width="460" height="60" as="geometry" />
        </mxCell>
        <mxCell id="ik_k4gAjeatmCQZmZOk4-25" style="edgeStyle=orthogonalEdgeStyle;rounded=0;orthogonalLoop=1;jettySize=auto;html=1;exitX=1;exitY=0.5;exitDx=0;exitDy=0;entryX=0;entryY=0.5;entryDx=0;entryDy=0;" parent="1" source="ik_k4gAjeatmCQZmZOk4-22" target="ik_k4gAjeatmCQZmZOk4-24" edge="1">
          <mxGeometry relative="1" as="geometry" />
        </mxCell>
        <mxCell id="ik_k4gAjeatmCQZmZOk4-27" style="edgeStyle=orthogonalEdgeStyle;rounded=0;orthogonalLoop=1;jettySize=auto;html=1;exitX=0.5;exitY=1;exitDx=0;exitDy=0;entryX=0.5;entryY=0;entryDx=0;entryDy=0;" parent="1" source="ik_k4gAjeatmCQZmZOk4-22" target="ik_k4gAjeatmCQZmZOk4-26" edge="1">
          <mxGeometry relative="1" as="geometry" />
        </mxCell>
        <mxCell id="ik_k4gAjeatmCQZmZOk4-22" value="Bean 实例化阶段" style="rounded=1;whiteSpace=wrap;html=1;fontStyle=0;fillColor=#d5e8d4;strokeColor=#82b366;" parent="1" vertex="1">
          <mxGeometry x="150" y="584.5" width="170" height="60" as="geometry" />
        </mxCell>
        <mxCell id="ik_k4gAjeatmCQZmZOk4-24" value="&lt;div style=&quot;&quot;&gt;&lt;font color=&quot;#ff9933&quot;&gt;&lt;b&gt;SmartInstantiationAwareBeanPostProcessor&lt;/b&gt;&lt;/font&gt;#determineCandidateConstructors&lt;br&gt;&lt;div style=&quot;text-align: center;&quot;&gt;&lt;span style=&quot;background-color: initial;&quot;&gt;选择合适的构造器&lt;br&gt;如果返回的不为空，则用返回的构造函数实例化Bean，&lt;br&gt;如果返回为null,则用无惨构造器函数实例化Bean&lt;/span&gt;&lt;/div&gt;&lt;/div&gt;" style="rounded=1;whiteSpace=wrap;html=1;fontStyle=0;align=left;fillColor=#dae8fc;strokeColor=#6c8ebf;" parent="1" vertex="1">
          <mxGeometry x="420" y="585" width="460" height="60" as="geometry" />
        </mxCell>
        <mxCell id="ik_k4gAjeatmCQZmZOk4-32" style="edgeStyle=orthogonalEdgeStyle;rounded=0;orthogonalLoop=1;jettySize=auto;html=1;exitX=1;exitY=0.5;exitDx=0;exitDy=0;" parent="1" source="ik_k4gAjeatmCQZmZOk4-26" target="ik_k4gAjeatmCQZmZOk4-30" edge="1">
          <mxGeometry relative="1" as="geometry" />
        </mxCell>
        <mxCell id="ik_k4gAjeatmCQZmZOk4-35" style="edgeStyle=orthogonalEdgeStyle;rounded=0;orthogonalLoop=1;jettySize=auto;html=1;exitX=0.5;exitY=1;exitDx=0;exitDy=0;entryX=0.5;entryY=0;entryDx=0;entryDy=0;" parent="1" source="ik_k4gAjeatmCQZmZOk4-26" target="ik_k4gAjeatmCQZmZOk4-34" edge="1">
          <mxGeometry relative="1" as="geometry" />
        </mxCell>
        <mxCell id="ik_k4gAjeatmCQZmZOk4-26" value="Bean 实例后前阶段" style="rounded=1;whiteSpace=wrap;html=1;fontStyle=0;fillColor=#d5e8d4;strokeColor=#82b366;" parent="1" vertex="1">
          <mxGeometry x="150" y="710" width="170" height="60" as="geometry" />
        </mxCell>
        <mxCell id="ik_k4gAjeatmCQZmZOk4-30" value="&lt;div style=&quot;&quot;&gt;&lt;div style=&quot;&quot;&gt;&lt;div style=&quot;text-align: left;&quot;&gt;&lt;span style=&quot;background-color: initial;&quot;&gt;1.调用&lt;font color=&quot;#ff3399&quot;&gt;&lt;b&gt;MergedBeanDefinitionPostProcessor&lt;/b&gt;&lt;/font&gt;#postProcessMergedBeadDefinition处理合并BeanDefinition问题&lt;/span&gt;&lt;/div&gt;&lt;div style=&quot;text-align: left;&quot;&gt;&lt;span style=&quot;background-color: initial;&quot;&gt;2.调用&lt;font color=&quot;#ff9933&quot;&gt;&lt;b&gt;SmartInstiationAwareBeanPostProcessor&lt;/b&gt;&lt;/font&gt;#getEarlyBeanReference 通过提前暴露工厂(三级缓存)，为后续&lt;b&gt;&lt;font color=&quot;#ff3333&quot;&gt;解决循环依赖埋点&lt;/font&gt;&lt;/b&gt;&lt;/span&gt;&lt;/div&gt;&lt;/div&gt;&lt;/div&gt;" style="rounded=1;whiteSpace=wrap;html=1;fontStyle=0;align=center;fillColor=#dae8fc;strokeColor=#6c8ebf;" parent="1" vertex="1">
          <mxGeometry x="420" y="710" width="460" height="60" as="geometry" />
        </mxCell>
        <mxCell id="ik_k4gAjeatmCQZmZOk4-37" style="edgeStyle=orthogonalEdgeStyle;rounded=0;orthogonalLoop=1;jettySize=auto;html=1;exitX=1;exitY=0.5;exitDx=0;exitDy=0;entryX=0;entryY=0.5;entryDx=0;entryDy=0;" parent="1" source="ik_k4gAjeatmCQZmZOk4-34" target="ik_k4gAjeatmCQZmZOk4-36" edge="1">
          <mxGeometry relative="1" as="geometry" />
        </mxCell>
        <mxCell id="ik_k4gAjeatmCQZmZOk4-41" value="返回true" style="edgeStyle=orthogonalEdgeStyle;rounded=0;orthogonalLoop=1;jettySize=auto;html=1;exitX=0.5;exitY=1;exitDx=0;exitDy=0;entryX=0.5;entryY=0;entryDx=0;entryDy=0;fontStyle=1" parent="1" source="ik_k4gAjeatmCQZmZOk4-34" target="ik_k4gAjeatmCQZmZOk4-38" edge="1">
          <mxGeometry x="-0.1429" y="-45" relative="1" as="geometry">
            <mxPoint as="offset" />
          </mxGeometry>
        </mxCell>
        <mxCell id="ik_k4gAjeatmCQZmZOk4-72" style="edgeStyle=orthogonalEdgeStyle;rounded=0;orthogonalLoop=1;jettySize=auto;html=1;exitX=0;exitY=0.5;exitDx=0;exitDy=0;entryX=0;entryY=0.5;entryDx=0;entryDy=0;" parent="1" source="ik_k4gAjeatmCQZmZOk4-34" target="ik_k4gAjeatmCQZmZOk4-58" edge="1">
          <mxGeometry relative="1" as="geometry">
            <Array as="points">
              <mxPoint x="50" y="870" />
              <mxPoint x="50" y="1480" />
            </Array>
          </mxGeometry>
        </mxCell>
        <mxCell id="ik_k4gAjeatmCQZmZOk4-73" value="返回false" style="edgeLabel;html=1;align=center;verticalAlign=middle;resizable=0;points=[];fontStyle=1" parent="ik_k4gAjeatmCQZmZOk4-72" vertex="1" connectable="0">
          <mxGeometry x="-0.8477" y="-3" relative="1" as="geometry">
            <mxPoint x="22" y="-7" as="offset" />
          </mxGeometry>
        </mxCell>
        <mxCell id="ik_k4gAjeatmCQZmZOk4-34" value="Bean 属性赋值前阶段" style="rounded=1;whiteSpace=wrap;html=1;fontStyle=0;fillColor=#ffe6cc;strokeColor=#d79b00;" parent="1" vertex="1">
          <mxGeometry x="150" y="840" width="170" height="60" as="geometry" />
        </mxCell>
        <mxCell id="ik_k4gAjeatmCQZmZOk4-36" value="&lt;div style=&quot;&quot;&gt;&lt;div style=&quot;&quot;&gt;&lt;b style=&quot;&quot;&gt;&lt;font color=&quot;#ff3333&quot;&gt;InstantiationAwareBeanPostProcessor&lt;/font&gt;&lt;/b&gt;#postProcessAfterInstantiation&lt;br&gt;该方法返回true，表示Bean属性未赋值，会按照正常流程设置属性值；&lt;br&gt;该方法返回false，&lt;span style=&quot;background-color: initial;&quot;&gt;表示Bean属性已赋值，&lt;/span&gt;&lt;span style=&quot;background-color: initial;&quot;&gt;会忽略属性值的设置；&lt;/span&gt;&lt;/div&gt;&lt;/div&gt;" style="rounded=1;whiteSpace=wrap;html=1;fontStyle=0;align=center;fillColor=#dae8fc;strokeColor=#6c8ebf;" parent="1" vertex="1">
          <mxGeometry x="420" y="840" width="460" height="60" as="geometry" />
        </mxCell>
        <mxCell id="ik_k4gAjeatmCQZmZOk4-40" style="edgeStyle=orthogonalEdgeStyle;rounded=0;orthogonalLoop=1;jettySize=auto;html=1;exitX=1;exitY=0.5;exitDx=0;exitDy=0;entryX=0;entryY=0.5;entryDx=0;entryDy=0;" parent="1" source="ik_k4gAjeatmCQZmZOk4-38" target="ik_k4gAjeatmCQZmZOk4-39" edge="1">
          <mxGeometry relative="1" as="geometry" />
        </mxCell>
        <mxCell id="ik_k4gAjeatmCQZmZOk4-45" style="edgeStyle=orthogonalEdgeStyle;rounded=0;orthogonalLoop=1;jettySize=auto;html=1;exitX=0.5;exitY=1;exitDx=0;exitDy=0;" parent="1" source="ik_k4gAjeatmCQZmZOk4-38" target="ik_k4gAjeatmCQZmZOk4-43" edge="1">
          <mxGeometry relative="1" as="geometry" />
        </mxCell>
        <mxCell id="ik_k4gAjeatmCQZmZOk4-38" value="Bean Aware接口回调阶段" style="rounded=1;whiteSpace=wrap;html=1;fontStyle=0;fillColor=#ffe6cc;strokeColor=#d79b00;" parent="1" vertex="1">
          <mxGeometry x="150" y="970" width="170" height="60" as="geometry" />
        </mxCell>
        <mxCell id="ik_k4gAjeatmCQZmZOk4-39" value="&lt;div style=&quot;&quot;&gt;&lt;div style=&quot;&quot;&gt;&lt;b style=&quot;&quot;&gt;&lt;font color=&quot;#ff3333&quot;&gt;InstantiationAwareBeanPostProcessor&lt;/font&gt;&lt;/b&gt;#postProcessProperties&lt;br&gt;对属性值进行填充注入：@Autowired，@Value，@Resource&lt;br&gt;&lt;/div&gt;&lt;div style=&quot;text-align: left;&quot;&gt;&lt;b&gt;@Autowired基于ByType注入，出现异常再ByName&lt;/b&gt;&lt;/div&gt;&lt;div style=&quot;text-align: left;&quot;&gt;&lt;b&gt;@Resource默认基于ByName&lt;/b&gt;&lt;/div&gt;&lt;/div&gt;" style="rounded=1;whiteSpace=wrap;html=1;fontStyle=0;align=center;fillColor=#dae8fc;strokeColor=#6c8ebf;" parent="1" vertex="1">
          <mxGeometry x="420" y="970" width="460" height="60" as="geometry" />
        </mxCell>
        <mxCell id="ik_k4gAjeatmCQZmZOk4-47" style="edgeStyle=orthogonalEdgeStyle;rounded=0;orthogonalLoop=1;jettySize=auto;html=1;exitX=1;exitY=0.5;exitDx=0;exitDy=0;entryX=0;entryY=0.5;entryDx=0;entryDy=0;" parent="1" source="ik_k4gAjeatmCQZmZOk4-43" target="ik_k4gAjeatmCQZmZOk4-46" edge="1">
          <mxGeometry relative="1" as="geometry" />
        </mxCell>
        <mxCell id="ik_k4gAjeatmCQZmZOk4-51" style="edgeStyle=orthogonalEdgeStyle;rounded=0;orthogonalLoop=1;jettySize=auto;html=1;exitX=0.5;exitY=1;exitDx=0;exitDy=0;entryX=0.5;entryY=0;entryDx=0;entryDy=0;" parent="1" source="ik_k4gAjeatmCQZmZOk4-43" target="ik_k4gAjeatmCQZmZOk4-48" edge="1">
          <mxGeometry relative="1" as="geometry" />
        </mxCell>
        <mxCell id="ik_k4gAjeatmCQZmZOk4-43" value="Bean 初始化前阶段" style="rounded=1;whiteSpace=wrap;html=1;fontStyle=0;fillColor=#ffe6cc;strokeColor=#d79b00;" parent="1" vertex="1">
          <mxGeometry x="150" y="1090" width="170" height="60" as="geometry" />
        </mxCell>
        <mxCell id="ik_k4gAjeatmCQZmZOk4-46" value="&lt;div style=&quot;&quot;&gt;&lt;div style=&quot;&quot;&gt;&lt;font color=&quot;#b266ff&quot;&gt;&lt;b&gt;BeanPostProcessor&lt;/b&gt;&lt;/font&gt;#postProcessBeforeInitialization&lt;br&gt;1、回调AplicationContextAware等接口&lt;br&gt;2、执行@PostConstruct标注的方法等&lt;/div&gt;&lt;/div&gt;" style="rounded=1;whiteSpace=wrap;html=1;fontStyle=0;align=center;fillColor=#dae8fc;strokeColor=#6c8ebf;" parent="1" vertex="1">
          <mxGeometry x="420" y="1090" width="460" height="60" as="geometry" />
        </mxCell>
        <mxCell id="ik_k4gAjeatmCQZmZOk4-50" style="edgeStyle=orthogonalEdgeStyle;rounded=0;orthogonalLoop=1;jettySize=auto;html=1;exitX=1;exitY=0.5;exitDx=0;exitDy=0;entryX=0;entryY=0.5;entryDx=0;entryDy=0;" parent="1" source="ik_k4gAjeatmCQZmZOk4-48" target="ik_k4gAjeatmCQZmZOk4-49" edge="1">
          <mxGeometry relative="1" as="geometry" />
        </mxCell>
        <mxCell id="ik_k4gAjeatmCQZmZOk4-54" style="edgeStyle=orthogonalEdgeStyle;rounded=0;orthogonalLoop=1;jettySize=auto;html=1;exitX=0.5;exitY=1;exitDx=0;exitDy=0;" parent="1" source="ik_k4gAjeatmCQZmZOk4-48" target="ik_k4gAjeatmCQZmZOk4-52" edge="1">
          <mxGeometry relative="1" as="geometry" />
        </mxCell>
        <mxCell id="ik_k4gAjeatmCQZmZOk4-48" value="Bean 初始化阶段" style="rounded=1;whiteSpace=wrap;html=1;fontStyle=0;fillColor=#ffe6cc;strokeColor=#d79b00;" parent="1" vertex="1">
          <mxGeometry x="150" y="1210" width="170" height="60" as="geometry" />
        </mxCell>
        <mxCell id="ik_k4gAjeatmCQZmZOk4-49" value="&lt;div style=&quot;&quot;&gt;&lt;div style=&quot;&quot;&gt;1.实现InitializingBean接口的afterPropertiesSet()方法&lt;br&gt;2.自定义初始化方法（init-method）&lt;/div&gt;&lt;/div&gt;" style="rounded=1;whiteSpace=wrap;html=1;fontStyle=0;align=left;fillColor=#dae8fc;strokeColor=#6c8ebf;" parent="1" vertex="1">
          <mxGeometry x="420" y="1210" width="460" height="60" as="geometry" />
        </mxCell>
        <mxCell id="ik_k4gAjeatmCQZmZOk4-60" style="edgeStyle=orthogonalEdgeStyle;rounded=0;orthogonalLoop=1;jettySize=auto;html=1;exitX=0.5;exitY=1;exitDx=0;exitDy=0;" parent="1" source="ik_k4gAjeatmCQZmZOk4-52" target="ik_k4gAjeatmCQZmZOk4-58" edge="1">
          <mxGeometry relative="1" as="geometry" />
        </mxCell>
        <mxCell id="ik_k4gAjeatmCQZmZOk4-52" value="Bean 初始化后阶段" style="rounded=1;whiteSpace=wrap;html=1;fontStyle=0;fillColor=#ffe6cc;strokeColor=#d79b00;" parent="1" vertex="1">
          <mxGeometry x="150" y="1330" width="170" height="60" as="geometry" />
        </mxCell>
        <mxCell id="ik_k4gAjeatmCQZmZOk4-62" style="edgeStyle=orthogonalEdgeStyle;rounded=0;orthogonalLoop=1;jettySize=auto;html=1;exitX=1;exitY=0.5;exitDx=0;exitDy=0;entryX=0;entryY=0.5;entryDx=0;entryDy=0;" parent="1" source="ik_k4gAjeatmCQZmZOk4-52" target="ik_k4gAjeatmCQZmZOk4-61" edge="1">
          <mxGeometry relative="1" as="geometry" />
        </mxCell>
        <mxCell id="ik_k4gAjeatmCQZmZOk4-64" style="edgeStyle=orthogonalEdgeStyle;rounded=0;orthogonalLoop=1;jettySize=auto;html=1;exitX=0.5;exitY=1;exitDx=0;exitDy=0;entryX=0.5;entryY=0;entryDx=0;entryDy=0;" parent="1" source="ik_k4gAjeatmCQZmZOk4-58" target="ik_k4gAjeatmCQZmZOk4-63" edge="1">
          <mxGeometry relative="1" as="geometry" />
        </mxCell>
        <mxCell id="0U1U2GIOByvi6HbQoDaQ-3" style="edgeStyle=orthogonalEdgeStyle;rounded=0;orthogonalLoop=1;jettySize=auto;html=1;exitX=1;exitY=0.5;exitDx=0;exitDy=0;entryX=0;entryY=0.5;entryDx=0;entryDy=0;fontColor=#FF9933;" edge="1" parent="1" source="ik_k4gAjeatmCQZmZOk4-58" target="0U1U2GIOByvi6HbQoDaQ-2">
          <mxGeometry relative="1" as="geometry" />
        </mxCell>
        <mxCell id="ik_k4gAjeatmCQZmZOk4-58" value="Bean 初始化完成阶段" style="rounded=1;whiteSpace=wrap;html=1;fontStyle=0;fillColor=#ffe6cc;strokeColor=#d79b00;" parent="1" vertex="1">
          <mxGeometry x="150" y="1450" width="170" height="60" as="geometry" />
        </mxCell>
        <mxCell id="ik_k4gAjeatmCQZmZOk4-61" value="&lt;div style=&quot;&quot;&gt;&lt;div style=&quot;&quot;&gt;&lt;b&gt;&lt;font color=&quot;#b266ff&quot;&gt;BeanPostProcesso&lt;/font&gt;r&lt;/b&gt;#postProcessAfterInitialization&lt;/div&gt;&lt;/div&gt;" style="rounded=1;whiteSpace=wrap;html=1;fontStyle=0;align=center;fillColor=#dae8fc;strokeColor=#6c8ebf;" parent="1" vertex="1">
          <mxGeometry x="420" y="1330" width="460" height="60" as="geometry" />
        </mxCell>
        <mxCell id="ik_k4gAjeatmCQZmZOk4-66" style="edgeStyle=orthogonalEdgeStyle;rounded=0;orthogonalLoop=1;jettySize=auto;html=1;exitX=1;exitY=0.5;exitDx=0;exitDy=0;entryX=0;entryY=0.5;entryDx=0;entryDy=0;" parent="1" source="ik_k4gAjeatmCQZmZOk4-63" target="ik_k4gAjeatmCQZmZOk4-65" edge="1">
          <mxGeometry relative="1" as="geometry" />
        </mxCell>
        <mxCell id="ik_k4gAjeatmCQZmZOk4-68" style="edgeStyle=orthogonalEdgeStyle;rounded=0;orthogonalLoop=1;jettySize=auto;html=1;exitX=0.5;exitY=1;exitDx=0;exitDy=0;" parent="1" source="ik_k4gAjeatmCQZmZOk4-63" target="ik_k4gAjeatmCQZmZOk4-67" edge="1">
          <mxGeometry relative="1" as="geometry" />
        </mxCell>
        <mxCell id="ik_k4gAjeatmCQZmZOk4-63" value="Bean 销毁前阶段" style="rounded=1;whiteSpace=wrap;html=1;fontStyle=0;fillColor=#fff2cc;strokeColor=#d6b656;" parent="1" vertex="1">
          <mxGeometry x="150" y="1570" width="170" height="60" as="geometry" />
        </mxCell>
        <mxCell id="ik_k4gAjeatmCQZmZOk4-65" value="&lt;div style=&quot;&quot;&gt;&lt;div style=&quot;&quot;&gt;DestructionAwareBeanPostProcessor#postProcessBeforeDestruction&lt;/div&gt;&lt;div style=&quot;&quot;&gt;如果该接口被用户实现，则运行实现方法逻辑&lt;/div&gt;&lt;/div&gt;" style="rounded=1;whiteSpace=wrap;html=1;fontStyle=0;align=center;fillColor=#dae8fc;strokeColor=#6c8ebf;" parent="1" vertex="1">
          <mxGeometry x="420" y="1570" width="460" height="60" as="geometry" />
        </mxCell>
        <mxCell id="ik_k4gAjeatmCQZmZOk4-70" style="edgeStyle=orthogonalEdgeStyle;rounded=0;orthogonalLoop=1;jettySize=auto;html=1;exitX=1;exitY=0.5;exitDx=0;exitDy=0;entryX=0;entryY=0.5;entryDx=0;entryDy=0;" parent="1" source="ik_k4gAjeatmCQZmZOk4-67" target="ik_k4gAjeatmCQZmZOk4-69" edge="1">
          <mxGeometry relative="1" as="geometry" />
        </mxCell>
        <mxCell id="ik_k4gAjeatmCQZmZOk4-67" value="Bean 销毁阶段" style="rounded=1;whiteSpace=wrap;html=1;fontStyle=0;fillColor=#fff2cc;strokeColor=#d6b656;" parent="1" vertex="1">
          <mxGeometry x="150" y="1694" width="170" height="60" as="geometry" />
        </mxCell>
        <mxCell id="ik_k4gAjeatmCQZmZOk4-69" value="&lt;div style=&quot;&quot;&gt;&lt;div style=&quot;&quot;&gt;1.@PreDestory标注方法&lt;br&gt;（Bean 销毁前阶段执行了，这里再放一次表明这3个方法功能都一样）&lt;br&gt;2.实现DisposableBean接口的destory()方法&lt;br&gt;3.自定义销毁方法&lt;/div&gt;&lt;/div&gt;" style="rounded=1;whiteSpace=wrap;html=1;fontStyle=0;align=center;fillColor=#dae8fc;strokeColor=#6c8ebf;" parent="1" vertex="1">
          <mxGeometry x="420" y="1694" width="460" height="60" as="geometry" />
        </mxCell>
        <mxCell id="0U1U2GIOByvi6HbQoDaQ-2" value="&lt;div style=&quot;&quot;&gt;&lt;div style=&quot;&quot;&gt;&lt;font color=&quot;#ff9933&quot;&gt;&lt;b&gt;SmartInitializingSingleton&lt;/b&gt;&lt;/font&gt;#afterSingletonsInstantiated&lt;br&gt;将SpringBean投放到Bean容器中&lt;/div&gt;&lt;/div&gt;" style="rounded=1;whiteSpace=wrap;html=1;fontStyle=0;align=center;fillColor=#dae8fc;strokeColor=#6c8ebf;" vertex="1" parent="1">
          <mxGeometry x="420" y="1450" width="460" height="60" as="geometry" />
        </mxCell>
      </root>
    </mxGraphModel>
  </diagram>
</mxfile>
